<svg version="1" xmlns="http://www.w3.org/2000/svg" width="497.333" height="497.333" viewBox="0 0 373.000000 373.000000"><path d="M174.5 2.1c-32.3 6.4-63.4 26.2-89.6 57.1-3 3.5-5.6 6.5-5.9 6.8-2.4 2.2-22 30.1-22 31.4 0 .2-1.7 3.3-3.9 6.7-3.8 6.4-15.1 28.1-15.1 29.2 0 .4-1.3 3.4-3 6.9-9.3 20-24.9 70.4-27.4 89-.3 1.8-1.2 7.1-2 11.8-.8 4.7-1.8 11.2-2.2 14.5-.3 3.3-.8 6.9-1 8-.2 1.1-.7 8.4-1 16.2L.7 294h19.2v-4.8c-.1-5.3.7-15 2.2-26.4 2-15.4 2.5-19 5-31.3 1-5.5 2.1-11 2.3-12.1 1.4-7.2 8.3-31.1 12.5-43.4C61 120.3 90 75.6 126 46.7c10.1-8.2 28.1-18.1 40.2-22.1 9.7-3.2 13.1-3.7 27.3-4 14.1-.4 25 .6 39.5 3.5 5.8 1.2 11.2 2.2 12 2.4.8.2 3.3.8 5.5 1.4 6.8 1.8 8.9 1.9 12.9.4 2.2-.7 4.1-1.1 4.3-.9.9.9 1.1 4.7 1.2 20.3l.1 16.2 5.8 4.2c14.1 10.3 19.9 19.3 26.7 41.4 14.7 47.2 24.9 72.3 43.2 105.8l7.6 13.9-2.5 2.3c-3.4 3.1-9.1 6.7-19.4 11.9-13.3 6.7-12.8 6.7-20.9-.5-9.8-8.6-24-19.9-30.6-24.2-12.1-7.8-32-16.3-42.9-18.1-25-4.3-37.6-8.8-47-16.8-9.4-7.9-14.3-29.1-10.6-45.1 1.4-6.1 5-14.7 8.6-20.3 1.8-3 .8-6.1-4.6-12.9-2.5-3.3-4.7-6.1-4.9-6.3-.6-.7-10.7 14.4-14 20.8-7.6 15.1-10 26.9-10 48.5 0 25.3 4.4 48 16.7 87 13.3 42.3 19.9 65.4 22.2 78 2.8 14.9 3.4 20.4 3.5 31.7l.1 7.8h10c7.3 0 10-.3 10.1-1.3.5-5.8-.7-26.2-1.6-27.7-.2-.3-.6-2.7-.9-5.4-1.7-12.5-9.5-41.2-20-73.1-9.5-29.2-17.4-55.4-18.2-60.5l-.7-4.1 7.9 3.6c20.5 9.4 27 11.5 48.3 15 17.7 3 48.3 21.6 73.1 44.5 6.4 5.9 9.4 7.1 14.4 5.6 13.2-4 32-13.2 39.9-19.6 5.5-4.4 10.1-10.4 11.7-15.4 2.3-7.3 1.8-8.6-15.2-41.6-11.1-21.5-17.7-37.8-27.8-68.5-4-12.1-8.8-25.5-10.7-29.7l-3.3-7.7 19.1-31.6c10.5-17.4 18.9-31.9 18.6-32.1-.5-.5-4.8 2.2-26.7 16.5C305.8 51.7 291 61 290.2 61c-.6 0-1-16.1-1.2-48.3V0h-17.9l-8 5-7.9 5.1-8.9-2.5c-24.1-6.8-54.1-9.1-71.8-5.5z"/><path d="M250.6 107.1c-15.1 4.3-9.5 28.5 6 26.2 7-1.1 13-9.2 11.8-15.9-1.4-7.8-9.8-12.7-17.8-10.3z"/></svg>